# xmcd
#
# Track frame offsets:
#	150
#	16316
#	29111
#	44760
#	59184
#	94144
#	113964
#	133945
#	145774
#	158233
#	176850
#	202083
#	220598
#	237712
#	251520
#	271037
#
# Disc length: 3828 seconds
#
# Revision: 5
# Processed by: cddbd v1.5.2PL0 Copyright (c) Steve Scherf et al.
# Submitted via: CDex 1.70beta2
#
DISCID=000ef210
DTITLE=Various Artist - Beyond Mississippi - Cd 1
DYEAR=2002
DGENRE=Blues
TTITLE0=Otis Taylor - My Soul's in Louisiana
TTITLE1=Golden Gate Quartet, (The) - Preacher and the Bear
TTITLE2=Corey Harris - Downhome Sophisticate
TTITLE3=Charlie Patton - A Spoonful Blues
TTITLE4=Albert King - Crosscut Saw
TTITLE5=Muddy Waters - Rollin' and Tumblin'
TTITLE6=Aretha Franklin - Today I Sing the Blues
TTITLE7=Odea Mathews - Something Within Me
TTITLE8=Bonzo Dog Band - Can Blue Men Sing the Whites?
TTITLE9=Justin Adams - Blue Man
TTITLE10=Dr. John - Gris-Gris Gumbo Ya Ya
TTITLE11=Reverend Gary Davis - Death Don't Have No Mercy
TTITLE12=Little Axe - All Night Party
TTITLE13=Memphis Minnie - I'm A Bad Luck Woman
TTITLE14=Paul Pena - Kargyraa Moan
TTITLE15=Mahalia Jackson - Consider Me
EXTD=YEAR: 2002
EXTT0=
EXTT1=
EXTT2=
EXTT3=
EXTT4=
EXTT5=
EXTT6=
EXTT7=
EXTT8=
EXTT9=
EXTT10=
EXTT11=
EXTT12=
EXTT13=
EXTT14=
EXTT15=
PLAYORDER=
